<?xml version="1.0" encoding="utf-8"?>
<!-- Generator: Adobe Illustrator 16.0.0, SVG Export Plug-In . SVG Version: 6.00 Build 0)  -->
<!DOCTYPE svg PUBLIC "-//W3C//DTD SVG 1.1//EN" "http://www.w3.org/Graphics/SVG/1.1/DTD/svg11.dtd">
<svg version="1.1" id="Layer_1" xmlns="http://www.w3.org/2000/svg" xmlns:xlink="http://www.w3.org/1999/xlink" x="0px" y="0px"
	 width="96.813px" height="30.117px" viewBox="0 0 96.813 30.117" enable-background="new 0 0 96.813 30.117" xml:space="preserve">
<g>
	<path d="M4.553,3.258h1.02v5.814h4.612v1.4H5.573v9.148c0,0.792,0.188,1.398,0.563,1.819c0.375,0.421,0.853,0.632,1.431,0.632
		c0.69,0,1.279-0.32,1.766-0.959c0.487-0.639,0.771-1.695,0.852-3.166h1.02c-0.061,1.897-0.492,3.306-1.294,4.224
		c-0.802,0.918-1.842,1.377-3.12,1.377c-1.177,0-2.098-0.322-2.763-0.966c-0.665-0.645-0.997-1.489-0.997-2.534v-9.574H0.55V9.408
		c1.13-0.193,1.991-0.665,2.582-1.416C4.008,6.866,4.481,5.288,4.553,3.258z"/>
	<path d="M12.559,0.823l5.404-0.259v10.99c0.75-0.974,1.558-1.702,2.42-2.184s1.776-0.723,2.74-0.723
		c0.914,0,1.735,0.218,2.466,0.655c0.568,0.345,1.053,0.949,1.454,1.811c0.401,0.863,0.602,1.882,0.602,3.06v6.773
		c0,0.437,0.111,0.753,0.335,0.951c0.223,0.198,0.573,0.297,1.05,0.297h1.218v1.142h-7.702v-1.142h0.852
		c0.649,0,1.099-0.104,1.347-0.312s0.373-0.52,0.373-0.936v-6.773c0-1.188-0.287-2.113-0.86-2.778
		c-0.574-0.665-1.307-0.997-2.2-0.997c-0.7,0-1.35,0.188-1.948,0.563c-0.599,0.376-1.106,0.947-1.522,1.712
		c-0.417,0.767-0.624,1.576-0.624,2.428v5.692c0,0.508,0.106,0.868,0.319,1.081c0.213,0.213,0.563,0.32,1.05,0.32h1.218v1.142
		h-7.534v-1.142h0.852c0.579,0,0.99-0.114,1.233-0.342c0.244-0.229,0.365-0.581,0.365-1.058V3.776c0-0.609-0.16-1.063-0.479-1.362
		c-0.319-0.299-0.784-0.449-1.393-0.449h-1.035V0.823z"/>
	<path d="M45.345,16.303H35.132c0.05,2.172,0.457,3.704,1.217,4.597c0.873,1.005,1.984,1.507,3.333,1.507
		c1.989,0,3.587-1.131,4.795-3.394l0.989,0.426c-1.482,2.882-3.623,4.323-6.423,4.323c-1.908,0-3.514-0.69-4.817-2.07
		c-1.304-1.38-1.956-3.146-1.956-5.297c0-2.313,0.642-4.183,1.925-5.609s2.864-2.139,4.742-2.139c1.38,0,2.572,0.355,3.577,1.065
		c1.005,0.71,1.761,1.73,2.268,3.06C45.137,13.705,45.325,14.882,45.345,16.303z M35.132,15.222h6.18
		c0.365,0,0.649-0.124,0.852-0.373c0.203-0.249,0.305-0.672,0.305-1.271c0-1.116-0.348-2.065-1.043-2.846
		c-0.695-0.781-1.514-1.172-2.458-1.172c-1.056,0-1.951,0.472-2.687,1.416C35.545,11.919,35.163,13.334,35.132,15.222z"/>
	<path d="M48.436,9.073l4.079-0.259c0.223,1.061,0.37,2.071,0.441,3.03c0.772-1.111,1.544-1.894,2.317-2.348
		c0.772-0.455,1.621-0.682,2.546-0.682c0.986,0,1.799,0.258,2.439,0.773s1.133,1.354,1.479,2.516
		c0.679-1.102,1.434-1.925,2.265-2.471c0.831-0.546,1.737-0.819,2.72-0.819c1.297,0,2.27,0.386,2.918,1.157
		c0.831,1.015,1.247,2.324,1.247,3.927v7.078c0,0.426,0.106,0.715,0.319,0.868c0.284,0.233,0.705,0.35,1.263,0.35h0.716v1.142
		h-7.169v-1.142h0.715c0.609,0,1.035-0.102,1.279-0.305s0.365-0.508,0.365-0.915v-7.087c0-1.056-0.258-1.874-0.774-2.454
		c-0.517-0.579-1.195-0.869-2.035-0.869c-0.638,0-1.215,0.17-1.731,0.511c-0.516,0.34-0.921,0.825-1.215,1.455
		c-0.435,0.905-0.653,1.672-0.653,2.302v6.142c0,0.417,0.112,0.724,0.335,0.922c0.223,0.198,0.568,0.297,1.035,0.297h0.974v1.142
		h-7.276v-1.142h0.822c0.517,0,0.903-0.101,1.157-0.304c0.253-0.203,0.38-0.462,0.38-0.776v-6.576c0-1.39-0.246-2.399-0.738-3.029
		s-1.154-0.944-1.986-0.944c-1.076,0-1.903,0.365-2.481,1.096c-0.822,1.035-1.233,2.243-1.233,3.623v5.692
		c0,0.437,0.096,0.736,0.289,0.898c0.274,0.213,0.7,0.32,1.279,0.32h0.73v1.142H48.07v-1.142h1.081c0.406,0,0.718-0.101,0.936-0.304
		s0.327-0.462,0.327-0.776v-9.346c0-0.518-0.132-0.903-0.396-1.157c-0.264-0.254-0.792-0.416-1.583-0.487V9.073z"/>
	<path fill="#F6EC13" d="M74.951,9.073h6.834v1.035h-0.64c-0.599,0-1.007,0.079-1.225,0.236s-0.327,0.383-0.327,0.677
		c0,0.132,0.03,0.264,0.091,0.396l3.973,8.569l2.952-7.108c0.213-0.507,0.32-1.004,0.32-1.492c0-0.375-0.147-0.667-0.441-0.875
		c-0.294-0.208-0.883-0.342-1.766-0.403V9.073h5.936v1.035c-1.146,0.112-1.917,0.624-2.313,1.537l-5.277,12.276
		c-0.896,2.085-1.796,3.518-2.699,4.299c-0.913,0.792-1.893,1.188-2.938,1.188c-0.761,0-1.373-0.208-1.834-0.624
		c-0.462-0.417-0.693-0.929-0.693-1.538c0-0.457,0.142-0.832,0.426-1.126c0.284-0.294,0.64-0.441,1.065-0.441
		c0.386,0,0.71,0.126,0.974,0.38c0.264,0.253,0.396,0.558,0.396,0.913c0,0.112-0.021,0.264-0.061,0.457
		c-0.041,0.152-0.061,0.264-0.061,0.335c0,0.244,0.157,0.365,0.472,0.365c0.335,0,0.713-0.122,1.134-0.365
		c0.421-0.243,0.814-0.634,1.18-1.172c0.365-0.538,1.006-1.729,1.921-3.574l-5.413-11.601c-0.192-0.406-0.433-0.708-0.721-0.906
		c-0.289-0.198-0.711-0.333-1.268-0.403V9.073z"/>
	<path fill="#F6EC13" d="M92.439,8.981l-0.487-0.685c1.004-0.72,1.743-1.433,2.215-2.139c0.472-0.705,0.708-1.311,0.708-1.819
		c0-0.172-0.028-0.302-0.083-0.388c-0.056-0.086-0.145-0.129-0.267-0.129l-0.152,0.031c-0.243,0.061-0.452,0.091-0.624,0.091
		c-0.446,0-0.83-0.165-1.149-0.495c-0.32-0.33-0.479-0.728-0.479-1.195c0-0.518,0.17-0.964,0.51-1.34
		c0.34-0.375,0.733-0.563,1.18-0.563c0.649,0,1.223,0.274,1.72,0.822c0.497,0.548,0.746,1.253,0.746,2.116
		c0,1.025-0.292,2.002-0.875,2.93C94.816,7.147,93.83,8.068,92.439,8.981z"/>
</g>
</svg>
